<svg width="408" height="408" viewBox="0 0 408 408" fill="none" xmlns="http://www.w3.org/2000/svg">
<path d="M216.508 165.526L242.036 165.52L242.027 242.033L216.509 242.03L216.508 165.526Z" fill="#FEFEFE"/>
<path d="M242.008 140.026L293.087 140.008L293.042 165.552L242.037 165.521L242.008 140.026Z" fill="#FEFEFE"/>
<path d="M242.026 242.034L293.074 242.01L293.041 267.559L242.012 267.526C242.007 259.056 241.935 250.496 242.026 242.034Z" fill="#FEFEFE"/>
<path d="M89 165.53L114.532 165.516L114.527 242.027L89.0115 242.039L89 165.53Z" fill="#FEFEFE"/>
<path d="M114.516 140.033C131.464 139.979 148.649 140.197 165.558 140L165.535 165.553C148.64 165.551 131.41 165.703 114.531 165.516L114.516 140.033Z" fill="#FEFEFE"/>
<path d="M114.527 242.027L165.554 242.014C165.547 250.434 165.423 259.162 165.539 267.557L114.512 267.532L114.527 242.027Z" fill="#FEFEFE"/>
</svg>
