<svg width="2072" height="473" viewBox="0 0 2072 473" fill="none" xmlns="http://www.w3.org/2000/svg">
<path d="M219.022 4.42041L226.124 91.829C226.274 93.6687 227.81 95.0856 229.656 95.0856H241.41C243.264 95.0856 244.804 93.6561 244.943 91.8071L251.499 4.39846C251.653 2.34275 250.027 0.589844 247.965 0.589844H222.554C220.484 0.589844 218.855 2.35698 219.022 4.42041Z" fill="white" stroke="white" stroke-width="1.1812"/>
<path d="M219.022 465.697L226.124 378.288C226.274 376.448 227.81 375.032 229.656 375.032H241.41C243.264 375.032 244.804 376.461 244.943 378.31L251.499 465.719C251.653 467.774 250.027 469.527 247.965 469.527H222.554C220.484 469.527 218.855 467.76 219.022 465.697Z" fill="white" stroke="white" stroke-width="1.1812"/>
<path d="M270.516 6.79594L259.289 93.771C259.053 95.6016 260.262 97.3071 262.067 97.6908L273.564 100.135C275.377 100.52 277.182 99.4421 277.702 97.6623L302.287 13.5267C302.866 11.548 301.639 9.49528 299.623 9.06667L274.767 3.78342C272.742 3.35299 270.781 4.74275 270.516 6.79594Z" fill="white" stroke="white" stroke-width="1.1812"/>
<path d="M167.556 456.134L194.138 372.564C194.698 370.805 196.514 369.77 198.312 370.185L209.764 372.829C211.571 373.246 212.751 374.986 212.47 376.819L199.195 463.462C198.883 465.499 196.904 466.841 194.895 466.378L170.135 460.661C168.118 460.196 166.928 458.107 167.556 456.134Z" fill="white" stroke="white" stroke-width="1.1812"/>
<path d="M321.767 20.6516L289.832 102.327C289.16 104.046 289.92 105.993 291.579 106.803L302.143 111.955C303.81 112.768 305.821 112.158 306.756 110.557L350.966 34.8687C352.006 33.0886 351.312 30.8002 349.46 29.8965L326.62 18.757C324.76 17.8495 322.52 18.7235 321.767 20.6516Z" fill="white" stroke="white" stroke-width="1.1812"/>
<path d="M119.557 435.242L164.257 359.793C165.198 358.205 167.2 357.605 168.859 358.415L179.423 363.567C181.09 364.38 181.848 366.34 181.162 368.063L148.737 449.499C147.974 451.414 145.744 452.277 143.891 451.373L121.052 440.234C119.191 439.326 118.501 437.023 119.557 435.242Z" fill="white" stroke="white" stroke-width="1.1812"/>
<path d="M367.778 45.6083L318.29 118.007C317.248 119.531 317.551 121.599 318.985 122.761L328.119 130.157C329.56 131.324 331.657 131.183 332.929 129.833L393.031 66.0295C394.445 64.5289 394.284 62.1432 392.682 60.8458L372.934 44.8541C371.325 43.5513 368.947 43.8992 367.778 45.6083Z" fill="white" stroke="white" stroke-width="1.1812"/>
<path d="M77.4904 404.086L138.018 340.626C139.292 339.291 141.378 339.157 142.812 340.318L151.946 347.715C153.387 348.882 153.685 350.962 152.629 352.487L102.716 424.541C101.542 426.236 99.1748 426.575 97.5727 425.277L77.8246 409.286C76.2157 407.983 76.0616 405.584 77.4904 404.086Z" fill="white" stroke="white" stroke-width="1.1812"/>
<path d="M462.956 275.112L376.426 260.857C374.604 260.557 372.858 261.705 372.411 263.496L369.568 274.9C369.119 276.699 370.134 278.54 371.894 279.122L455.12 306.629C457.078 307.276 459.172 306.122 459.671 304.122L465.818 279.465C466.319 277.457 464.999 275.448 462.956 275.112Z" fill="white" stroke="white" stroke-width="1.1812"/>
<path d="M15.3837 163.518L98.4777 191.555C100.227 192.145 101.23 193.979 100.783 195.77L97.9398 207.174C97.4912 208.973 95.7314 210.122 93.9037 209.81L7.50557 195.024C5.47362 194.677 4.16623 192.675 4.66495 190.674L10.8124 166.018C11.3133 164.009 13.4221 162.856 15.3837 163.518Z" fill="white" stroke="white" stroke-width="1.1812"/>
<path d="M448.112 325.308L367.006 291.953C365.299 291.251 363.339 291.977 362.501 293.622L357.165 304.094C356.323 305.746 356.897 307.768 358.482 308.731L433.387 354.255C435.149 355.325 437.449 354.672 438.385 352.835L449.921 330.194C450.861 328.349 450.026 326.095 448.112 325.308Z" fill="white" stroke="white" stroke-width="1.1812"/>
<path d="M37.1116 115.897L111.769 161.908C113.34 162.876 113.905 164.889 113.067 166.533L107.731 177.006C106.889 178.658 104.916 179.382 103.206 178.666L22.348 144.824C20.4463 144.028 19.6228 141.783 20.5587 139.947L32.0951 117.305C33.0349 115.461 35.3492 114.811 37.1116 115.897Z" fill="white" stroke="white" stroke-width="1.1812"/>
<path d="M422.354 370.88L350.83 320.135C349.325 319.067 347.251 319.333 346.065 320.747L338.51 329.751C337.318 331.171 337.423 333.27 338.75 334.565L401.495 395.772C402.971 397.212 405.359 397.093 406.684 395.514L423.018 376.048C424.349 374.462 424.042 372.078 422.354 370.88Z" fill="white" stroke="white" stroke-width="1.1812"/>
<path d="M68.996 74.3784L131.39 136.004C132.703 137.301 132.801 139.389 131.614 140.803L124.059 149.807C122.867 151.227 120.782 151.488 119.276 150.406L48.1036 99.2428C46.4298 98.0396 46.1324 95.667 47.4575 94.0878L63.7914 74.6218C65.1221 73.0359 67.5231 72.9236 68.996 74.3784Z" fill="white" stroke="white" stroke-width="1.1812"/>
<path d="M387.003 409.489L328.727 343.956C327.501 342.577 325.421 342.37 323.946 343.481L314.56 350.554C313.079 351.67 312.709 353.739 313.711 355.299L361.079 429.052C362.193 430.786 364.547 431.208 366.193 429.967L386.487 414.674C388.141 413.428 388.378 411.036 387.003 409.489Z" fill="white" stroke="white" stroke-width="1.1812"/>
<path d="M109.402 41.0981L156.334 115.18C157.322 116.739 156.948 118.795 155.474 119.906L146.087 126.98C144.606 128.096 142.515 127.881 141.292 126.488L83.4522 60.6255C82.0919 59.0765 82.3359 56.6978 83.9823 55.4572L104.276 40.1644C105.93 38.9186 108.295 39.3493 109.402 41.0981Z" fill="white" stroke="white" stroke-width="1.1812"/>
<path d="M343.876 439.156L301.836 362.193C300.951 360.573 298.971 359.904 297.285 360.655L286.548 365.435C284.854 366.19 284.028 368.122 284.653 369.868L314.216 452.386C314.912 454.327 317.11 455.267 318.994 454.428L342.208 444.092C344.099 443.25 344.869 440.973 343.876 439.156Z" fill="white" stroke="white" stroke-width="1.1812"/>
<path d="M156.26 17.7627L185.324 100.503C185.936 102.245 185.109 104.164 183.422 104.915L172.685 109.695C170.991 110.449 169.002 109.77 168.123 108.137L126.582 30.9521C125.605 29.1368 126.378 26.874 128.261 26.0355L151.475 15.6999C153.367 14.8578 155.574 15.8095 156.26 17.7627Z" fill="white" stroke="white" stroke-width="1.1812"/>
<path d="M299.067 457.283L273.947 373.261C273.418 371.492 271.621 370.426 269.815 370.81L258.319 373.253C256.505 373.639 255.295 375.357 255.544 377.195L267.305 464.056C267.581 466.099 269.537 467.476 271.553 467.047L296.409 461.764C298.434 461.333 299.66 459.266 299.067 457.283Z" fill="white" stroke="white" stroke-width="1.1812"/>
<path d="M203.164 6.08891L214.39 93.064C214.627 94.8946 213.418 96.6 211.613 96.9838L200.116 99.4275C198.302 99.813 196.498 98.7351 195.978 96.9552L171.392 12.8197C170.814 10.841 172.04 8.78824 174.057 8.35964L198.913 3.07639C200.938 2.64596 202.899 4.03571 203.164 6.08891Z" fill="white" stroke="white" stroke-width="1.1812"/>
<path d="M407.001 80.2774L342.495 139.688C341.137 140.938 340.967 143.022 342.103 144.476L349.339 153.738C350.481 155.199 352.556 155.533 354.098 154.504L427.013 105.856C428.728 104.712 429.108 102.351 427.839 100.726L412.194 80.7023C410.92 79.0709 408.524 78.8749 407.001 80.2774Z" fill="white" stroke="white" stroke-width="1.1812"/>
<path d="M43.5129 364.27L116.764 316.052C118.306 315.037 120.369 315.376 121.505 316.83L128.741 326.092C129.883 327.553 129.705 329.647 128.333 330.895L63.4902 389.875C61.9652 391.262 59.5826 391.06 58.3134 389.435L42.6688 369.411C41.3943 367.78 41.7837 365.408 43.5129 364.27Z" fill="white" stroke="white" stroke-width="1.1812"/>
<path d="M437.418 122.881L361.2 166.258C359.596 167.171 358.961 169.163 359.741 170.836L364.708 181.488C365.492 183.169 367.439 183.961 369.173 183.305L451.163 152.306C453.091 151.577 453.992 149.362 453.121 147.494L442.382 124.464C441.507 122.587 439.217 121.857 437.418 122.881Z" fill="white" stroke="white" stroke-width="1.1812"/>
<path d="M19.3591 317.825L101.58 287.321C103.31 286.679 105.244 287.473 106.024 289.146L110.991 299.798C111.775 301.479 111.13 303.479 109.513 304.387L33.0644 347.268C31.2664 348.277 28.9904 347.544 28.1192 345.675L17.3801 322.645C16.5051 320.769 17.4181 318.545 19.3591 317.825Z" fill="white" stroke="white" stroke-width="1.1812"/>
<path d="M457.468 171.236L373.446 196.356C371.678 196.884 370.611 198.682 370.995 200.488L373.439 211.984C373.824 213.798 375.543 215.008 377.38 214.759L464.242 202.998C466.285 202.721 467.661 200.766 467.233 198.75L461.949 173.894C461.519 171.869 459.452 170.643 457.468 171.236Z" fill="white" stroke="white" stroke-width="1.1812"/>
<path d="M6.27446 267.141L93.2495 255.914C95.0802 255.678 96.7856 256.887 97.1693 258.692L99.613 270.189C99.9985 272.002 98.9206 273.807 97.1408 274.327L13.0053 298.912C11.0265 299.491 8.97379 298.264 8.54518 296.248L3.26193 271.392C2.83151 269.367 4.22126 267.406 6.27446 267.141Z" fill="white" stroke="white" stroke-width="1.1812"/>
<path d="M466.131 222.862L378.612 228.437C376.77 228.554 375.327 230.066 375.294 231.911L375.089 243.663C375.057 245.517 376.459 247.083 378.306 247.253L465.587 255.334C467.639 255.524 469.42 253.928 469.456 251.867L469.9 226.46C469.936 224.39 468.197 222.73 466.131 222.862Z" fill="white" stroke="white" stroke-width="1.1812"/>
<path d="M4.92611 214.81L92.1974 223.436C94.0343 223.618 95.4241 225.179 95.3919 227.024L95.1868 238.776C95.1544 240.63 93.6983 242.145 91.8471 242.252L4.33737 247.281C2.27928 247.399 0.555028 245.743 0.591006 243.681L1.03449 218.274C1.07062 216.204 2.86592 214.606 4.92611 214.81Z" fill="white" stroke="white" stroke-width="1.1812"/>
<path d="M610.788 196.59H586.496V46.5353H651.204C664.676 46.5353 675.282 50.6198 683.021 58.789C690.76 66.8148 694.63 77.7787 694.63 91.6806C694.63 102.43 692.122 111.387 687.106 118.553C682.233 125.575 674.995 130.52 665.393 133.386L697.854 196.59H670.767L640.67 135.966H610.788V196.59ZM649.484 115.543C655.647 115.543 660.448 113.967 663.888 110.814C667.328 107.517 669.047 102.859 669.047 96.8401V86.5211C669.047 80.5018 667.328 75.9156 663.888 72.7626C660.448 69.4662 655.647 67.8181 649.484 67.8181H610.788V115.543H649.484ZM766.352 199.17C758.613 199.17 751.518 197.808 745.069 195.085C738.763 192.362 733.389 188.492 728.946 183.476C724.503 178.317 721.063 172.154 718.627 164.988C716.19 157.679 714.972 149.581 714.972 140.696C714.972 131.81 716.19 123.784 718.627 116.618C721.063 109.309 724.503 103.146 728.946 98.1299C733.389 92.9705 738.763 89.0292 745.069 86.3062C751.518 83.5831 758.613 82.2216 766.352 82.2216C774.091 82.2216 781.114 83.5831 787.42 86.3062C793.869 89.0292 799.315 92.9705 803.758 98.1299C808.201 103.146 811.641 109.309 814.077 116.618C816.513 123.784 817.732 131.81 817.732 140.696C817.732 149.581 816.513 157.679 814.077 164.988C811.641 172.154 808.201 178.317 803.758 183.476C799.315 188.492 793.869 192.362 787.42 195.085C781.114 197.808 774.091 199.17 766.352 199.17ZM766.352 179.822C774.378 179.822 780.827 177.385 785.7 172.512C790.573 167.496 793.009 160.044 793.009 150.155V131.237C793.009 121.348 790.573 113.967 785.7 109.094C780.827 104.078 774.378 101.57 766.352 101.57C758.326 101.57 751.877 104.078 747.004 109.094C742.131 113.967 739.695 121.348 739.695 131.237V150.155C739.695 160.044 742.131 167.496 747.004 172.512C751.877 177.385 758.326 179.822 766.352 179.822ZM874.168 196.59C865.999 196.59 859.836 194.512 855.68 190.355C851.524 186.056 849.446 180.037 849.446 172.297V103.934H832.033V84.8013H841.492C845.361 84.8013 848.013 83.9414 849.446 82.2216C851.022 80.5018 851.811 77.707 851.811 73.8374V54.2744H872.878V84.8013H896.311V103.934H872.878V177.457H894.591V196.59H874.168ZM1003.64 196.59C997.473 196.59 992.743 194.87 989.447 191.43C986.151 187.847 984.144 183.333 983.427 177.887H982.353C980.203 184.909 976.262 190.212 970.529 193.795C964.796 197.378 957.845 199.17 949.676 199.17C938.067 199.17 929.11 196.16 922.804 190.141C916.641 184.121 913.56 176.024 913.56 165.848C913.56 154.669 917.573 146.285 925.598 140.696C933.768 135.106 945.663 132.311 961.285 132.311H981.493V122.852C981.493 115.973 979.63 110.67 975.903 106.944C972.177 103.218 966.373 101.355 958.49 101.355C951.897 101.355 946.523 102.788 942.367 105.654C938.21 108.521 934.699 112.175 931.833 116.618L917.859 103.934C921.585 97.6283 926.817 92.4689 933.553 88.4559C940.289 84.2997 949.103 82.2216 959.995 82.2216C974.47 82.2216 985.577 85.5896 993.316 92.3255C1001.06 99.0615 1004.93 108.736 1004.93 121.348V177.457H1016.75V196.59H1003.64ZM956.34 181.326C963.649 181.326 969.669 179.75 974.398 176.597C979.128 173.301 981.493 168.929 981.493 163.483V147.36H961.715C945.52 147.36 937.422 152.376 937.422 162.408V166.278C937.422 171.294 939.07 175.092 942.367 177.672C945.806 180.108 950.464 181.326 956.34 181.326ZM1070.04 196.59C1061.87 196.59 1055.71 194.512 1051.55 190.355C1047.4 186.056 1045.32 180.037 1045.32 172.297V103.934H1027.91V84.8013H1037.37C1041.23 84.8013 1043.89 83.9414 1045.32 82.2216C1046.9 80.5018 1047.68 77.707 1047.68 73.8374V54.2744H1068.75V84.8013H1092.18V103.934H1068.75V177.457H1090.46V196.59H1070.04ZM1129.43 64.8084C1124.55 64.8084 1120.97 63.6618 1118.68 61.3687C1116.53 59.0756 1115.45 56.1376 1115.45 52.5546V48.9C1115.45 45.317 1116.53 42.379 1118.68 40.0859C1120.97 37.7928 1124.55 36.6463 1129.43 36.6463C1134.3 36.6463 1137.81 37.7928 1139.96 40.0859C1142.11 42.379 1143.18 45.317 1143.18 48.9V52.5546C1143.18 56.1376 1142.11 59.0756 1139.96 61.3687C1137.81 63.6618 1134.3 64.8084 1129.43 64.8084ZM1117.6 84.8013H1141.03V196.59H1117.6V84.8013ZM1174.5 196.59V84.8013H1197.93V103.289H1199C1201.44 97.27 1205.09 92.2539 1209.97 88.241C1214.98 84.228 1221.79 82.2216 1230.39 82.2216C1241.86 82.2216 1250.74 86.0195 1257.05 93.6154C1263.5 101.068 1266.72 111.745 1266.72 125.647V196.59H1243.29V128.657C1243.29 111.172 1236.27 102.43 1222.22 102.43C1219.21 102.43 1216.2 102.859 1213.19 103.719C1210.33 104.436 1207.75 105.583 1205.45 107.159C1203.16 108.736 1201.3 110.742 1199.86 113.178C1198.57 115.615 1197.93 118.481 1197.93 121.778V196.59H1174.5ZM1397.23 207.124C1397.23 218.733 1392.79 227.475 1383.9 233.351C1375.02 239.227 1360.54 242.165 1340.48 242.165C1331.3 242.165 1323.49 241.52 1317.04 240.23C1310.74 239.084 1305.51 237.364 1301.35 235.071C1297.34 232.778 1294.4 229.983 1292.54 226.687C1290.67 223.39 1289.74 219.592 1289.74 215.293C1289.74 209.13 1291.39 204.329 1294.69 200.889C1298.12 197.45 1302.85 195.085 1308.87 193.795V191.43C1300.42 188.707 1296.19 182.975 1296.19 174.232C1296.19 168.499 1298.12 164.128 1301.99 161.118C1305.86 157.965 1310.52 155.744 1315.97 154.454V153.594C1309.38 150.441 1304.29 146.07 1300.7 140.481C1297.26 134.748 1295.55 128.084 1295.55 120.488C1295.55 109.022 1299.34 99.7781 1306.94 92.7555C1314.68 85.7329 1325.71 82.2216 1340.05 82.2216C1347.93 82.2216 1354.66 83.3681 1360.25 85.6612V82.6515C1360.25 77.6354 1361.4 73.7658 1363.69 71.0427C1366.13 68.1764 1369.86 66.7432 1374.87 66.7432H1392.07V85.6612H1369.28V90.1758C1374.3 93.4721 1378.17 97.7717 1380.89 103.074C1383.61 108.234 1384.98 114.038 1384.98 120.488C1384.98 131.81 1381.11 140.982 1373.37 148.005C1365.63 154.884 1354.59 158.324 1340.26 158.324C1334.81 158.324 1329.94 157.75 1325.64 156.604C1322.78 157.607 1320.27 159.04 1318.12 160.904C1315.97 162.623 1314.89 164.916 1314.89 167.783C1314.89 170.792 1316.25 172.942 1318.98 174.232C1321.7 175.522 1325.57 176.167 1330.59 176.167H1358.1C1371.86 176.167 1381.82 178.962 1387.99 184.551C1394.15 189.997 1397.23 197.521 1397.23 207.124ZM1375.3 209.703C1375.3 205.834 1373.8 202.753 1370.79 200.459C1367.92 198.166 1362.62 197.02 1354.88 197.02H1317.04C1311.88 200.029 1309.3 204.329 1309.3 209.918C1309.3 214.505 1311.1 218.159 1314.68 220.882C1318.4 223.749 1324.64 225.182 1333.38 225.182H1348C1366.2 225.182 1375.3 220.022 1375.3 209.703ZM1340.26 141.341C1347.14 141.341 1352.44 139.836 1356.17 136.826C1360.04 133.673 1361.97 128.872 1361.97 122.422V118.123C1361.97 111.674 1360.04 106.944 1356.17 103.934C1352.44 100.781 1347.14 99.2048 1340.26 99.2048C1333.38 99.2048 1328.01 100.781 1324.14 103.934C1320.41 106.944 1318.55 111.674 1318.55 118.123V122.422C1318.55 128.872 1320.41 133.673 1324.14 136.826C1328.01 139.836 1333.38 141.341 1340.26 141.341ZM1467.19 196.59V46.5353H1531.68C1545.59 46.5353 1556.34 50.6198 1563.93 58.789C1571.53 66.9581 1575.33 77.922 1575.33 91.6806C1575.33 105.439 1571.53 116.403 1563.93 124.572C1556.34 132.741 1545.59 136.826 1531.68 136.826H1491.48V196.59H1467.19ZM1491.48 115.543H1530.18C1536.34 115.543 1541.14 113.967 1544.58 110.814C1548.02 107.517 1549.74 102.859 1549.74 96.8401V86.5211C1549.74 80.5018 1548.02 75.9156 1544.58 72.7626C1541.14 69.4662 1536.34 67.8181 1530.18 67.8181H1491.48V115.543ZM1639.91 199.17C1632.17 199.17 1625.08 197.808 1618.63 195.085C1612.32 192.362 1606.95 188.492 1602.5 183.476C1598.06 178.317 1594.62 172.154 1592.18 164.988C1589.75 157.679 1588.53 149.581 1588.53 140.696C1588.53 131.81 1589.75 123.784 1592.18 116.618C1594.62 109.309 1598.06 103.146 1602.5 98.1299C1606.95 92.9705 1612.32 89.0292 1618.63 86.3062C1625.08 83.5831 1632.17 82.2216 1639.91 82.2216C1647.65 82.2216 1654.67 83.5831 1660.98 86.3062C1667.43 89.0292 1672.87 92.9705 1677.32 98.1299C1681.76 103.146 1685.2 109.309 1687.63 116.618C1690.07 123.784 1691.29 131.81 1691.29 140.696C1691.29 149.581 1690.07 157.679 1687.63 164.988C1685.2 172.154 1681.76 178.317 1677.32 183.476C1672.87 188.492 1667.43 192.362 1660.98 195.085C1654.67 197.808 1647.65 199.17 1639.91 199.17ZM1639.91 179.822C1647.94 179.822 1654.38 177.385 1659.26 172.512C1664.13 167.496 1666.57 160.044 1666.57 150.155V131.237C1666.57 121.348 1664.13 113.967 1659.26 109.094C1654.38 104.078 1647.94 101.57 1639.91 101.57C1631.88 101.57 1625.43 104.078 1620.56 109.094C1615.69 113.967 1613.25 121.348 1613.25 131.237V150.155C1613.25 160.044 1615.69 167.496 1620.56 172.512C1625.43 177.385 1631.88 179.822 1639.91 179.822ZM1704.75 84.8013H1727.54L1738.93 131.667L1749.04 174.017H1749.68L1761.29 131.667L1774.83 84.8013H1795.9L1809.66 131.667L1821.48 174.017H1822.13L1832.02 131.667L1843.63 84.8013H1865.34L1835.24 196.59H1808.8L1794.18 145.64L1785.15 114.253H1784.72L1775.91 145.64L1761.07 196.59H1735.28L1704.75 84.8013ZM1930.05 199.17C1922.02 199.17 1914.85 197.808 1908.55 195.085C1902.24 192.362 1896.87 188.492 1892.42 183.476C1887.98 178.317 1884.54 172.154 1882.11 164.988C1879.81 157.679 1878.67 149.581 1878.67 140.696C1878.67 131.81 1879.81 123.784 1882.11 116.618C1884.54 109.309 1887.98 103.146 1892.42 98.1299C1896.87 92.9705 1902.24 89.0292 1908.55 86.3062C1914.85 83.5831 1922.02 82.2216 1930.05 82.2216C1938.21 82.2216 1945.38 83.6548 1951.54 86.5211C1957.85 89.3875 1963.08 93.4004 1967.24 98.5599C1971.39 103.576 1974.47 109.452 1976.48 116.188C1978.63 122.924 1979.71 130.162 1979.71 137.901V146.715H1902.96V150.37C1902.96 158.969 1905.47 166.063 1910.48 171.652C1915.64 177.099 1922.95 179.822 1932.41 179.822C1939.29 179.822 1945.09 178.317 1949.82 175.307C1954.55 172.297 1958.57 168.213 1961.86 163.053L1975.62 176.597C1971.46 183.476 1965.45 188.994 1957.56 193.15C1949.68 197.163 1940.51 199.17 1930.05 199.17ZM1930.05 100.495C1926.03 100.495 1922.31 101.211 1918.87 102.644C1915.57 104.078 1912.7 106.084 1910.27 108.664C1907.97 111.244 1906.18 114.325 1904.89 117.908C1903.6 121.491 1902.96 125.432 1902.96 129.732V131.237H1954.98V129.087C1954.98 120.488 1952.76 113.608 1948.32 108.449C1943.88 103.146 1937.78 100.495 1930.05 100.495ZM2005.65 196.59V84.8013H2029.08V106.299H2030.15C2031.73 100.566 2035.03 95.5502 2040.04 91.2507C2045.06 86.9511 2052.01 84.8013 2060.9 84.8013H2067.13V107.374H2057.89C2048.57 107.374 2041.4 108.879 2036.39 111.889C2031.51 114.898 2029.08 119.341 2029.08 125.217V196.59H2005.65ZM642.175 298.033V426.59H617.883V298.033H573.167V276.535H686.891V298.033H642.175ZM738.64 429.17C730.614 429.17 723.448 427.808 717.142 425.085C710.836 422.362 705.462 418.492 701.019 413.476C696.576 408.317 693.136 402.154 690.7 394.988C688.407 387.679 687.26 379.581 687.26 370.696C687.26 361.81 688.407 353.784 690.7 346.618C693.136 339.309 696.576 333.146 701.019 328.13C705.462 322.97 710.836 319.029 717.142 316.306C723.448 313.583 730.614 312.222 738.64 312.222C746.809 312.222 753.975 313.655 760.138 316.521C766.444 319.388 771.675 323.4 775.831 328.56C779.987 333.576 783.069 339.452 785.075 346.188C787.225 352.924 788.3 360.162 788.3 367.901V376.715H711.553V380.37C711.553 388.969 714.061 396.063 719.077 401.652C724.236 407.099 731.546 409.822 741.005 409.822C747.884 409.822 753.688 408.317 758.418 405.307C763.147 402.297 767.16 398.213 770.457 393.053L784.215 406.597C780.059 413.476 774.04 418.994 766.157 423.15C758.274 427.163 749.102 429.17 738.64 429.17ZM738.64 330.495C734.627 330.495 730.901 331.211 727.461 332.644C724.165 334.078 721.298 336.084 718.862 338.664C716.569 341.244 714.777 344.325 713.487 347.908C712.198 351.491 711.553 355.432 711.553 359.732V361.237H763.577V359.087C763.577 350.488 761.356 343.608 756.913 338.449C752.47 333.146 746.379 330.495 738.64 330.495ZM857.45 429.17C849.425 429.17 842.259 427.808 835.953 425.085C829.647 422.362 824.344 418.492 820.044 413.476C815.745 408.317 812.448 402.154 810.155 394.988C807.862 387.679 806.716 379.581 806.716 370.696C806.716 361.81 807.862 353.784 810.155 346.618C812.448 339.309 815.745 333.146 820.044 328.13C824.344 322.97 829.647 319.029 835.953 316.306C842.259 313.583 849.425 312.222 857.45 312.222C868.629 312.222 877.802 314.73 884.968 319.746C892.134 324.762 897.365 331.426 900.661 339.739L881.313 348.768C879.736 343.608 876.942 339.524 872.929 336.514C869.059 333.361 863.9 331.785 857.45 331.785C848.851 331.785 842.33 334.508 837.887 339.954C833.588 345.257 831.438 352.207 831.438 360.807V380.8C831.438 389.399 833.588 396.421 837.887 401.867C842.33 407.17 848.851 409.822 857.45 409.822C864.33 409.822 869.776 408.173 873.789 404.877C877.945 401.437 881.241 396.923 883.678 391.333L901.521 400.792C897.795 409.965 892.205 416.987 884.753 421.86C877.3 426.733 868.199 429.17 857.45 429.17ZM923.828 267.506H947.261V333.289H948.336C950.772 327.27 954.427 322.254 959.3 318.241C964.316 314.228 971.123 312.222 979.722 312.222C991.188 312.222 1000.07 316.02 1006.38 323.615C1012.83 331.068 1016.05 341.745 1016.05 355.647V426.59H992.621V358.442C992.621 341.1 985.599 332.43 971.553 332.43C968.544 332.43 965.534 332.859 962.524 333.719C959.658 334.436 957.078 335.583 954.785 337.159C952.492 338.736 950.629 340.742 949.196 343.178C947.906 345.615 947.261 348.41 947.261 351.563V426.59H923.828V267.506ZM1048.53 426.59V314.801H1071.96V333.289H1073.04C1075.48 327.27 1079.13 322.254 1084 318.241C1089.02 314.228 1095.83 312.222 1104.43 312.222C1115.89 312.222 1124.78 316.02 1131.08 323.615C1137.53 331.068 1140.76 341.745 1140.76 355.647V426.59H1117.33V358.657C1117.33 341.172 1110.3 332.43 1096.26 332.43C1093.25 332.43 1090.24 332.859 1087.23 333.719C1084.36 334.436 1081.78 335.583 1079.49 337.159C1077.2 338.736 1075.33 340.742 1073.9 343.178C1072.61 345.615 1071.96 348.481 1071.96 351.778V426.59H1048.53ZM1217.09 429.17C1209.35 429.17 1202.26 427.808 1195.81 425.085C1189.5 422.362 1184.13 418.492 1179.69 413.476C1175.24 408.317 1171.8 402.154 1169.37 394.988C1166.93 387.679 1165.71 379.581 1165.71 370.696C1165.71 361.81 1166.93 353.784 1169.37 346.618C1171.8 339.309 1175.24 333.146 1179.69 328.13C1184.13 322.97 1189.5 319.029 1195.81 316.306C1202.26 313.583 1209.35 312.222 1217.09 312.222C1224.83 312.222 1231.85 313.583 1238.16 316.306C1244.61 319.029 1250.05 322.97 1254.5 328.13C1258.94 333.146 1262.38 339.309 1264.82 346.618C1267.25 353.784 1268.47 361.81 1268.47 370.696C1268.47 379.581 1267.25 387.679 1264.82 394.988C1262.38 402.154 1258.94 408.317 1254.5 413.476C1250.05 418.492 1244.61 422.362 1238.16 425.085C1231.85 427.808 1224.83 429.17 1217.09 429.17ZM1217.09 409.822C1225.12 409.822 1231.57 407.385 1236.44 402.512C1241.31 397.496 1243.75 390.044 1243.75 380.155V361.237C1243.75 351.348 1241.31 343.967 1236.44 339.094C1231.57 334.078 1225.12 331.57 1217.09 331.57C1209.07 331.57 1202.62 334.078 1197.74 339.094C1192.87 343.967 1190.43 351.348 1190.43 361.237V380.155C1190.43 390.044 1192.87 397.496 1197.74 402.512C1202.62 407.385 1209.07 409.822 1217.09 409.822ZM1318.44 426.59C1310.42 426.59 1304.4 424.583 1300.39 420.57C1296.52 416.414 1294.58 410.681 1294.58 403.372V267.506H1318.01V407.457H1333.49V426.59H1318.44ZM1399.74 429.17C1392 429.17 1384.91 427.808 1378.46 425.085C1372.15 422.362 1366.78 418.492 1362.33 413.476C1357.89 408.317 1354.45 402.154 1352.01 394.988C1349.58 387.679 1348.36 379.581 1348.36 370.696C1348.36 361.81 1349.58 353.784 1352.01 346.618C1354.45 339.309 1357.89 333.146 1362.33 328.13C1366.78 322.97 1372.15 319.029 1378.46 316.306C1384.91 313.583 1392 312.222 1399.74 312.222C1407.48 312.222 1414.5 313.583 1420.81 316.306C1427.26 319.029 1432.7 322.97 1437.15 328.13C1441.59 333.146 1445.03 339.309 1447.46 346.618C1449.9 353.784 1451.12 361.81 1451.12 370.696C1451.12 379.581 1449.9 387.679 1447.46 394.988C1445.03 402.154 1441.59 408.317 1437.15 413.476C1432.7 418.492 1427.26 422.362 1420.81 425.085C1414.5 427.808 1407.48 429.17 1399.74 429.17ZM1399.74 409.822C1407.76 409.822 1414.21 407.385 1419.09 402.512C1423.96 397.496 1426.4 390.044 1426.4 380.155V361.237C1426.4 351.348 1423.96 343.967 1419.09 339.094C1414.21 334.078 1407.76 331.57 1399.74 331.57C1391.71 331.57 1385.26 334.078 1380.39 339.094C1375.52 343.967 1373.08 351.348 1373.08 361.237V380.155C1373.08 390.044 1375.52 397.496 1380.39 402.512C1385.26 407.385 1391.71 409.822 1399.74 409.822ZM1575.26 437.124C1575.26 448.733 1570.82 457.475 1561.93 463.351C1553.04 469.227 1538.57 472.165 1518.5 472.165C1509.33 472.165 1501.52 471.52 1495.07 470.23C1488.77 469.084 1483.53 467.364 1479.38 465.071C1475.37 462.778 1472.43 459.983 1470.56 456.687C1468.7 453.39 1467.77 449.592 1467.77 445.293C1467.77 439.13 1469.42 434.329 1472.71 430.889C1476.15 427.45 1480.88 425.085 1486.9 423.795V421.43C1478.45 418.707 1474.22 412.975 1474.22 404.232C1474.22 398.499 1476.15 394.128 1480.02 391.118C1483.89 387.965 1488.55 385.744 1494 384.454V383.594C1487.4 380.441 1482.32 376.07 1478.73 370.481C1475.29 364.748 1473.57 358.084 1473.57 350.488C1473.57 339.022 1477.37 329.778 1484.97 322.756C1492.71 315.733 1503.74 312.222 1518.07 312.222C1525.96 312.222 1532.69 313.368 1538.28 315.661V312.652C1538.28 307.635 1539.43 303.766 1541.72 301.043C1544.16 298.176 1547.88 296.743 1552.9 296.743H1570.1V315.661H1547.31V320.176C1552.33 323.472 1556.2 327.772 1558.92 333.074C1561.64 338.234 1563 344.038 1563 350.488C1563 361.81 1559.13 370.982 1551.4 378.005C1543.66 384.884 1532.62 388.324 1518.29 388.324C1512.84 388.324 1507.97 387.75 1503.67 386.604C1500.8 387.607 1498.3 389.04 1496.15 390.904C1494 392.623 1492.92 394.916 1492.92 397.783C1492.92 400.792 1494.28 402.942 1497.01 404.232C1499.73 405.522 1503.6 406.167 1508.62 406.167H1536.13C1549.89 406.167 1559.85 408.962 1566.01 414.551C1572.18 419.997 1575.26 427.521 1575.26 437.124ZM1553.33 439.703C1553.33 435.834 1551.83 432.753 1548.82 430.459C1545.95 428.166 1540.65 427.02 1532.91 427.02H1495.07C1489.91 430.029 1487.33 434.329 1487.33 439.918C1487.33 444.505 1489.12 448.159 1492.71 450.882C1496.43 453.749 1502.67 455.182 1511.41 455.182H1526.03C1544.23 455.182 1553.33 450.022 1553.33 439.703ZM1518.29 371.341C1525.17 371.341 1530.47 369.836 1534.2 366.826C1538.07 363.673 1540 358.872 1540 352.422V348.123C1540 341.674 1538.07 336.944 1534.2 333.934C1530.47 330.781 1525.17 329.205 1518.29 329.205C1511.41 329.205 1506.04 330.781 1502.17 333.934C1498.44 336.944 1496.58 341.674 1496.58 348.123V352.422C1496.58 358.872 1498.44 363.673 1502.17 366.826C1506.04 369.836 1511.41 371.341 1518.29 371.341ZM1604.52 294.808C1599.65 294.808 1596.06 293.662 1593.77 291.369C1591.62 289.076 1590.55 286.138 1590.55 282.555V278.9C1590.55 275.317 1591.62 272.379 1593.77 270.086C1596.06 267.793 1599.65 266.646 1604.52 266.646C1609.39 266.646 1612.9 267.793 1615.05 270.086C1617.2 272.379 1618.28 275.317 1618.28 278.9V282.555C1618.28 286.138 1617.2 289.076 1615.05 291.369C1612.9 293.662 1609.39 294.808 1604.52 294.808ZM1592.7 314.801H1616.13V426.59H1592.7V314.801ZM1693.44 429.17C1685.42 429.17 1678.25 427.808 1671.95 425.085C1665.64 422.362 1660.27 418.492 1655.82 413.476C1651.38 408.317 1647.94 402.154 1645.5 394.988C1643.21 387.679 1642.06 379.581 1642.06 370.696C1642.06 361.81 1643.21 353.784 1645.5 346.618C1647.94 339.309 1651.38 333.146 1655.82 328.13C1660.27 322.97 1665.64 319.029 1671.95 316.306C1678.25 313.583 1685.42 312.222 1693.44 312.222C1701.61 312.222 1708.78 313.655 1714.94 316.521C1721.25 319.388 1726.48 323.4 1730.64 328.56C1734.79 333.576 1737.87 339.452 1739.88 346.188C1742.03 352.924 1743.1 360.162 1743.1 367.901V376.715H1666.36V380.37C1666.36 388.969 1668.86 396.063 1673.88 401.652C1679.04 407.099 1686.35 409.822 1695.81 409.822C1702.69 409.822 1708.49 408.317 1713.22 405.307C1717.95 402.297 1721.96 398.213 1725.26 393.053L1739.02 406.597C1734.86 413.476 1728.84 418.994 1720.96 423.15C1713.08 427.163 1703.91 429.17 1693.44 429.17ZM1693.44 330.495C1689.43 330.495 1685.7 331.211 1682.27 332.644C1678.97 334.078 1676.1 336.084 1673.67 338.664C1671.37 341.244 1669.58 344.325 1668.29 347.908C1667 351.491 1666.36 355.432 1666.36 359.732V361.237H1718.38V359.087C1718.38 350.488 1716.16 343.608 1711.72 338.449C1707.27 333.146 1701.18 330.495 1693.44 330.495ZM1804.52 429.17C1793.91 429.17 1785.02 427.306 1777.86 423.58C1770.69 419.854 1764.46 414.694 1759.16 408.102L1774.2 394.343C1778.36 399.359 1782.95 403.301 1787.96 406.167C1793.12 408.89 1799.07 410.252 1805.81 410.252C1812.68 410.252 1817.77 408.962 1821.07 406.382C1824.51 403.659 1826.23 399.933 1826.23 395.203C1826.23 391.62 1825.01 388.61 1822.57 386.174C1820.28 383.594 1816.2 381.946 1810.32 381.23L1800 379.94C1788.54 378.506 1779.51 375.21 1772.91 370.051C1766.46 364.748 1763.24 356.937 1763.24 346.618C1763.24 341.172 1764.24 336.371 1766.25 332.215C1768.26 327.915 1771.05 324.332 1774.63 321.466C1778.36 318.456 1782.73 316.163 1787.75 314.586C1792.91 313.01 1798.57 312.222 1804.73 312.222C1814.76 312.222 1822.93 313.798 1829.24 316.951C1835.69 320.104 1841.42 324.475 1846.44 330.065L1832.03 343.823C1829.17 340.384 1825.37 337.446 1820.64 335.009C1816.05 332.43 1810.75 331.14 1804.73 331.14C1798.28 331.14 1793.48 332.43 1790.33 335.009C1787.32 337.589 1785.81 340.957 1785.81 345.113C1785.81 349.413 1787.17 352.637 1789.9 354.787C1792.62 356.937 1796.99 358.514 1803.01 359.517L1813.33 360.807C1825.66 362.67 1834.61 366.324 1840.2 371.77C1845.93 377.073 1848.8 384.239 1848.8 393.268C1848.8 398.714 1847.73 403.659 1845.58 408.102C1843.57 412.401 1840.63 416.128 1836.76 419.281C1832.89 422.434 1828.23 424.87 1822.79 426.59C1817.34 428.31 1811.25 429.17 1804.52 429.17Z" fill="white"/>
</svg>
