<svg width="1184" height="381" viewBox="0 0 1184 381" fill="none" xmlns="http://www.w3.org/2000/svg">
<path d="M158.132 0.15503C166.18 -0.414937 180.955 0.662619 188.857 2.1473C236.462 11.0927 267.308 32.6258 294.955 70.7833C307.839 51.2719 325.185 35.111 345.559 23.638C377.007 6.15699 416.047 0.543948 450.723 10.7124C522.718 31.8246 537.724 94.6846 569.904 152.781C576.669 109.971 596.999 72.6898 630.322 44.7302C665.785 15.1933 711.495 0.87918 757.473 4.91139C791.333 7.91714 826.935 20.9623 850.79 47.0118C857.044 53.841 860.206 64.3967 859.14 73.737C858.118 82.3065 853.683 90.1024 846.849 95.3681C835.432 104.117 818.991 103.984 808.069 95.2711C768.725 63.8943 716.839 59.7711 675.33 92.8457C654.212 109.558 640.569 133.958 637.399 160.705C634.878 185.205 642.189 209.704 657.729 228.816C675.166 250.422 699.913 263.124 727.234 265.686C791.766 271.739 839.807 244.207 864.294 183.789C870.826 167.67 874.585 151.547 879.375 134.886C890.385 96.6483 907.969 62.4131 939.395 37.0556C969.868 12.3651 1008.93 0.847138 1047.92 5.05432C1087.66 9.14197 1124.15 28.8569 1149.35 59.8577C1175.26 92.5702 1187.23 134.182 1182.65 175.664C1182.55 177.048 1182.42 178.431 1182.25 179.81C1175.15 243.793 1135.57 302.028 1086.23 342.064C1071.53 353.994 1028.01 383.018 1008.09 380.508C1000.33 379.521 993.299 375.454 988.578 369.224C983.987 363.149 982.03 354.887 983.121 347.4C985.893 328.258 1005.94 325.03 1018.96 314.994C1021.31 313.183 1021.31 312.856 1021.59 310.494C1019.71 308.752 999.137 305.389 994.546 304.308C956.684 295.388 933.037 276.729 908.393 247.988C903.075 253.633 896.552 262.924 890.974 269.353C857.91 307.429 810.017 329.19 760.167 332.822C647.638 341.017 557.534 269.678 506.592 174.997C489.599 145.939 480.287 109.502 454.959 86.2989C442.5 74.8857 425.191 69.5429 408.468 70.7876C369.369 73.6981 342.203 107.207 332.192 142.819C326.312 163.736 323.85 185.316 316.829 205.981C309.892 226.419 299.084 245.33 284.996 261.681C256.727 294.277 216.712 314.366 173.684 317.563C130.005 320.601 86.9159 306.095 53.967 277.259C22.2195 249.703 2.85707 210.56 0.219457 168.605C-1.98159 126.98 12.4443 86.1854 40.3224 55.1967C71.979 19.5798 111.124 2.83076 158.132 0.15503Z" fill="#1C1C1C"/>
<path d="M154.313 67.38C204.696 63.366 248.826 100.881 252.977 151.253C257.127 201.624 219.732 245.856 169.371 250.143C118.817 254.445 74.3796 216.876 70.2132 166.311C66.0467 115.746 103.736 71.4096 154.313 67.38Z" fill="white"/>
<path d="M1020.28 69.4632C1068.87 63.9324 1112.71 98.8736 1118.16 147.46C1123.61 196.048 1088.6 239.836 1040 245.205C991.516 250.563 947.859 215.648 942.419 167.175C936.979 118.702 971.818 74.9809 1020.28 69.4632Z" fill="white"/>
</svg>
