<svg width="45" height="44" viewBox="0 0 45 44" fill="none" xmlns="http://www.w3.org/2000/svg">
<path d="M17.061 22.2126C17.0155 22.8455 16.9998 23.4821 16.9162 24.1105C16.8178 24.8521 16.6051 25.5662 16.0986 26.15C16.0076 26.255 15.8755 26.3428 15.7449 26.392C15.078 26.6407 14.4371 26.5535 13.8373 26.1842C13.1934 25.7881 12.5548 25.3838 11.9207 24.9713C11.1933 24.4985 10.4211 24.1314 9.55344 24.0249C8.31052 23.8723 7.15041 24.1001 6.11638 24.8469C5.73962 25.1187 5.71724 25.5133 5.74857 25.9065C5.77916 26.2937 6.04848 26.5245 6.40584 26.6429C6.93256 26.8179 7.46524 26.975 7.98971 27.1552C8.13967 27.2065 8.30231 27.2817 8.40601 27.3942C8.93496 27.969 9.64297 28.2832 10.2756 28.7061C11.332 29.4128 12.4452 30.0449 13.3911 30.9019C14.7602 32.1417 15.9583 33.5311 16.97 35.0783C17.4564 35.8214 17.9764 36.5437 18.4352 37.3032C18.8441 37.98 19.1074 38.7268 19.3066 39.493C19.4827 40.1698 19.6804 40.8415 19.8318 41.5235C19.9885 42.2279 20.1019 42.9427 20.2347 43.6523C20.2504 43.7349 20.2705 43.8168 20.2981 43.9434C19.6819 43.7379 19.0999 43.5473 18.521 43.3507C16.5067 42.6657 14.5304 41.8891 12.6354 40.9174C10.5211 39.8333 8.58133 38.5072 6.9236 36.7931C5.54937 35.3724 4.42283 33.7723 3.51414 32.0225C3.0486 31.1268 2.59277 30.2214 2.21079 29.2884C1.7266 28.106 1.82031 28.4924 1.40767 27.1552C1.24503 26.6987 1.01444 26.0206 0.88336 25.2342C0.795975 24.7099 0.653504 24.0346 0.621206 23.421C0.577515 22.5908 0.621207 22.8093 0.577515 22.1539C0.577515 21.7388 0.595095 21.2931 0.621207 21.0616C0.693574 20.4175 0.680631 20.2417 0.7903 19.6035C0.940257 18.7294 1.09245 17.8523 1.31851 16.996C1.68258 15.6192 2.15483 14.2753 2.74422 12.9752C3.83868 10.5627 5.28154 8.37961 7.07058 6.4258C8.75964 4.58146 9.21562 3.99082 11.3695 2.71088C12.0994 2.32321 14.2313 1.29088 14.9522 1.02873C15.8916 0.766575 16.6173 0.599715 17.5738 0.438884C18.3631 0.306347 19.2201 0.234546 20.0168 0.152641C20.5749 0.0953074 21.1374 0.0841386 21.6977 0.0558442C22.0931 0.0357403 22.4885 0.0193593 22.8839 0.00148918C22.8996 0.00148918 22.9153 0.000744589 22.9309 0C23.2838 0 23.6367 0 23.9896 0C24.0052 0 24.0209 0.000744589 24.0366 0.00148918C24.5051 0.0186147 24.9744 0.0230823 25.4421 0.0573334C26.0502 0.102009 26.6567 0.167533 27.2633 0.231567C27.7736 0.285178 28.2853 0.332087 28.7919 0.411013C29.3612 0.499619 29.9282 0.604606 30.4899 0.732676C31.0853 0.868935 31.6769 1.0253 32.2611 1.20177C34.6962 1.93668 36.9373 3.0409 38.8756 4.7125C40.64 6.23295 41.9657 8.07283 42.8244 10.2307C43.1684 11.0951 43.4429 11.9931 43.6712 12.8948C43.8622 13.6506 43.9584 14.4324 44.0629 15.2067C44.1494 15.8463 44.1934 16.4919 44.2427 17.136C44.283 17.6594 44.3039 18.1836 44.333 18.7078C44.3516 19.0354 44.3695 19.3638 44.3882 19.6914C44.3882 20.1642 44.3889 20.6363 44.3897 21.1091C44.3725 21.5841 44.3658 22.0599 44.3352 22.5335C44.3024 23.0406 44.2472 23.5461 44.2002 24.0517C44.1576 24.5096 44.1382 24.9705 44.0659 25.4232C43.9219 26.3302 43.7771 27.2393 43.5832 28.1365C43.1251 30.2564 42.4223 32.2936 41.4226 34.2243C39.4933 37.948 36.6829 40.8065 32.9735 42.7737C32.1529 43.2092 31.2979 43.5808 30.4213 44C30.3348 43.5309 30.2557 43.1221 30.1855 42.7119C30.1102 42.2711 30.0371 41.8303 29.9729 41.3872C29.9177 41.0082 29.8662 40.6285 29.8319 40.248C29.7782 39.6471 29.7267 39.0462 29.6991 38.4439C29.6588 37.566 29.9088 36.741 30.1982 35.9242C30.5101 35.0471 30.8428 34.1759 31.1017 33.2831C31.2464 32.785 31.2852 32.2504 31.3255 31.7292C31.38 31.0307 31.3889 30.3279 31.421 29.6279C31.4479 29.0233 31.4583 28.4172 31.5143 27.8156C31.5874 27.0271 31.8187 26.2736 32.1902 25.5759C32.5311 24.9363 32.9071 24.3138 33.2966 23.7025C33.9859 22.6199 34.6917 21.5469 35.4019 20.4777C35.8444 19.8113 36.3256 19.1702 36.7575 18.4971C37.1701 17.853 37.37 17.136 37.3007 16.3661C37.2619 15.9312 37.1455 15.512 36.9321 15.1241C36.8687 15.0087 36.7792 14.9789 36.6471 14.9662C35.8347 14.8873 35.3176 15.3512 34.8894 15.9357C34.5253 16.4323 34.2254 16.9759 33.8681 17.4777C33.5928 17.8642 33.3063 18.2551 32.9616 18.5775C32.3222 19.1761 31.8104 19.8716 31.2927 20.5678C31.0786 20.8559 30.8421 21.1307 30.5944 21.3898C30.3251 21.672 29.9841 21.8373 29.588 21.8544C29.194 21.8716 29.1321 21.8135 29.2127 21.4345C29.3485 20.7964 29.4835 20.1553 29.6715 19.5313C29.867 18.8828 30.1266 18.2536 30.3571 17.6155C30.6981 16.6706 30.9599 15.7064 31.1591 14.719C31.2934 14.0578 31.5583 13.4235 31.7567 12.7742C32.0007 11.9767 32.2887 11.1875 32.4543 10.3744C32.558 9.86506 32.5207 9.31183 32.4565 8.78987C32.411 8.41609 32.0708 8.17633 31.7769 7.95444C31.3001 7.59481 30.8458 7.64618 30.4496 8.09294C30.0587 8.53448 29.82 9.06463 29.6081 9.60371C29.109 10.8762 28.6166 12.1517 28.1451 13.4339C27.7743 14.442 27.449 15.4666 27.082 16.477C26.7903 17.2804 26.3866 18.0287 25.8607 18.7071C25.807 18.7763 25.7473 18.8418 25.6876 18.9066C25.6749 18.9208 25.6503 18.9245 25.6197 18.9379C25.6055 18.8925 25.5824 18.853 25.5824 18.8135C25.5816 18.171 25.5682 17.5299 25.6906 16.891C25.8338 16.1419 25.9442 15.3862 26.0688 14.6334C26.1792 13.9655 26.2994 13.2984 26.3971 12.629C26.4777 12.0765 26.5224 11.5188 26.6015 10.9656C26.6843 10.3878 26.7962 9.81368 26.8805 9.23588C26.9783 8.56575 27.2028 7.9269 27.3535 7.27166C27.5773 6.2955 27.1476 5.34615 26.3225 4.81675C25.7517 4.45041 24.9415 4.60677 24.5633 5.332C24.3589 5.72366 24.3141 6.15179 24.2164 6.56951C24.0358 7.34463 23.8374 8.11528 23.6531 8.88965C23.4658 9.67668 23.2905 10.4667 23.1033 11.2537C22.9555 11.8755 22.7884 12.4927 22.6459 13.1152C22.5631 13.4786 22.4982 13.8471 22.4512 14.2164C22.3512 15.0012 22.2916 15.792 22.1677 16.5731C22.0991 17.0057 21.9581 17.4316 21.8059 17.8448C21.6425 18.2893 21.2232 18.3913 20.8554 18.0756C20.6853 17.9297 20.5376 17.7212 20.4607 17.5112C20.2287 16.8754 20.1265 16.209 20.0467 15.5358C19.9214 14.4763 19.755 13.4212 19.6155 12.3632C19.5707 12.0259 19.5513 11.6856 19.5282 11.346C19.4797 10.6335 19.4871 9.91271 19.3775 9.21057C19.2633 8.48013 19.0552 7.7616 18.8493 7.04977C18.7829 6.82044 18.5904 6.62908 18.4621 6.41612C18.2823 6.11829 18.0092 6.11159 17.7115 6.15999C17.0983 6.26125 16.729 6.65812 16.5417 7.20613C16.3977 7.62831 16.2881 8.07879 16.2635 8.52182C16.2105 9.50319 16.2224 10.4875 16.2045 11.4704C16.2008 11.6655 16.1821 11.8606 16.1709 12.0556C16.1709 12.1599 16.1724 12.2649 16.1732 12.3691C16.1732 12.5731 16.1739 12.7779 16.1747 12.9819C16.1732 13.101 16.1724 13.2202 16.1709 13.3393C16.209 13.763 16.2463 14.1867 16.2858 14.6103C16.3172 14.9417 16.347 15.273 16.3873 15.6036C16.4358 16.0035 16.4932 16.4018 16.547 16.8009C16.6104 17.2722 16.6738 17.7436 16.7379 18.2149C16.7924 18.614 16.8513 19.0116 16.9021 19.4107C16.9401 19.7048 16.9752 19.9997 16.9998 20.2945C17.0259 20.6065 17.0386 20.92 17.0573 21.2327C17.0573 21.5581 17.0565 21.8835 17.0558 22.2096L17.061 22.2126Z" fill="#F6F7ED"/>
<path d="M44.3897 21.113C44.3897 20.6402 44.3889 20.1681 44.3882 19.6953C44.4001 19.9894 44.4195 20.2835 44.4225 20.5776C44.424 20.7556 44.4016 20.9343 44.3897 21.113Z" fill="#F6F7ED"/>
<path d="M17.0616 22.2132C17.0616 21.8878 17.0624 21.5625 17.0631 21.2363C17.0631 21.5617 17.0624 21.8871 17.0616 22.2132Z" fill="#F6F7ED"/>
<path d="M16.1853 12.3701C16.1853 12.2659 16.1839 12.1609 16.1831 12.0566C16.1831 12.1609 16.1846 12.2659 16.1853 12.3701Z" fill="#F6F7ED"/>
<path d="M22.9332 0C22.9176 0 22.9019 0.000744589 22.8862 0.00148918C22.9019 0.00148918 22.9176 0.000744589 22.9332 0Z" fill="#F6F7ED"/>
<path d="M24.0345 0.00148918C24.0189 0.00148918 24.0032 0.000744589 23.9875 0C24.0032 0 24.0189 0.000744589 24.0345 0.00148918Z" fill="#F6F7ED"/>
</svg>
