<svg width="476" height="164" viewBox="0 0 476 164" fill="none" xmlns="http://www.w3.org/2000/svg">
<path d="M51.1309 32.5862C56.2954 23.6421 69.2057 23.6419 74.3701 32.5862L123.683 117.995C128.847 126.94 122.392 138.121 112.063 138.121H13.4375C3.10883 138.121 -3.34676 126.94 1.81738 117.995L51.1309 32.5862ZM93.6875 82.3459C92.5274 80.3598 90.2344 79.3281 87.9785 79.7776L26.459 92.0364C25.6037 92.207 24.8552 92.72 24.3877 93.4563C23.1604 95.3896 24.3066 97.9487 26.5664 98.3196L99.8135 110.337C104.315 111.076 107.642 106.238 105.342 102.299L93.6875 82.3459Z" fill="white"/>
<path d="M210.77 126.516C204.874 126.516 199.653 125.168 195.105 122.474C190.558 119.779 186.979 115.989 184.368 111.104C181.757 106.136 180.452 100.325 180.452 93.6715C180.452 87.0185 181.757 81.2496 184.368 76.3651C186.979 71.3963 190.558 67.5645 195.105 64.8696C199.653 62.1747 204.874 60.8272 210.77 60.8272C216.665 60.8272 221.886 62.1747 226.434 64.8696C230.982 67.5645 234.561 71.3963 237.171 76.3651C239.782 81.2496 241.087 87.0185 241.087 93.6715C241.087 100.325 239.782 106.136 237.171 111.104C234.561 115.989 230.982 119.779 226.434 122.474C221.886 125.168 216.665 126.516 210.77 126.516ZM210.77 116.41C214.391 116.41 217.675 115.61 220.623 114.01C223.571 112.41 225.886 109.925 227.571 106.557C229.339 103.188 230.224 98.893 230.224 93.6715C230.224 88.4501 229.339 84.1551 227.571 80.7865C225.886 77.4178 223.571 74.9334 220.623 73.3333C217.675 71.7332 214.391 70.9331 210.77 70.9331C207.233 70.9331 203.99 71.7332 201.043 73.3333C198.095 74.9334 195.737 77.4178 193.968 80.7865C192.2 84.1551 191.316 88.4501 191.316 93.6715C191.316 101.504 193.211 107.272 197 110.978C200.79 114.599 205.38 116.41 210.77 116.41ZM287.147 126.516C279.146 126.516 272.661 124.663 267.693 120.958C262.808 117.168 260.071 111.989 259.482 105.42H270.472C270.977 108.873 272.661 111.694 275.525 113.883C278.472 116.073 282.43 117.168 287.399 117.168C292.115 117.168 295.61 116.157 297.884 114.136C300.242 112.115 301.421 109.799 301.421 107.188C301.421 103.651 300.032 101.251 297.253 99.9878C294.473 98.6403 290.305 97.6297 284.746 96.956C278.093 96.198 272.577 94.3874 268.198 91.524C263.819 88.6607 261.629 84.3656 261.629 78.6389C261.629 73.5017 263.777 69.2488 268.072 65.8802C272.367 62.5115 278.22 60.8272 285.631 60.8272C292.957 60.8272 298.726 62.5115 302.937 65.8802C307.148 69.1646 309.548 73.8807 310.138 80.0285H299.653C299.4 76.9967 297.926 74.5966 295.231 72.828C292.621 70.9753 289.336 70.0489 285.378 70.0489C281.251 70.0489 278.051 70.8489 275.777 72.449C273.504 73.9649 272.367 75.9861 272.367 78.5126C272.367 81.0391 273.63 83.1445 276.156 84.8288C278.767 86.4289 282.852 87.4816 288.41 87.9869C292.789 88.4922 296.789 89.3344 300.411 90.5134C304.032 91.6925 306.895 93.5452 309.001 96.0717C311.19 98.5982 312.285 102.135 312.285 106.683C312.369 110.473 311.317 113.883 309.127 116.915C307.022 119.863 304.074 122.221 300.284 123.989C296.495 125.674 292.115 126.516 287.147 126.516ZM361.502 51.2265C358.976 51.2265 356.87 50.3844 355.186 48.7001C353.502 47.0157 352.66 44.9945 352.66 42.6365C352.66 40.1942 353.502 38.173 355.186 36.5729C356.87 34.8886 358.976 34.0464 361.502 34.0464C363.945 34.0464 366.008 34.8886 367.692 36.5729C369.461 38.173 370.345 40.1942 370.345 42.6365C370.345 44.9945 369.461 47.0157 367.692 48.7001C366.008 50.3844 363.945 51.2265 361.502 51.2265ZM336.995 125V115.905H356.955V74.5966C356.955 72.4912 355.902 71.4384 353.797 71.4384H339.143V62.3431H356.323C363.818 62.3431 367.566 66.0907 367.566 73.586V115.905H387.525V125H336.995ZM438.637 126.516C430.637 126.516 424.152 124.663 419.183 120.958C414.299 117.168 411.562 111.989 410.972 105.42H421.962C422.468 108.873 424.152 111.694 427.015 113.883C429.963 116.073 433.921 117.168 438.89 117.168C443.606 117.168 447.101 116.157 449.375 114.136C451.733 112.115 452.912 109.799 452.912 107.188C452.912 103.651 451.522 101.251 448.743 99.9878C445.964 98.6403 441.795 97.6297 436.237 96.956C429.584 96.198 424.068 94.3874 419.688 91.524C415.309 88.6607 413.12 84.3656 413.12 78.6389C413.12 73.5017 415.267 69.2488 419.562 65.8802C423.857 62.5115 429.71 60.8272 437.121 60.8272C444.448 60.8272 450.217 62.5115 454.428 65.8802C458.639 69.1646 461.039 73.8807 461.628 80.0285H451.143C450.891 76.9967 449.417 74.5966 446.722 72.828C444.111 70.9753 440.827 70.0489 436.869 70.0489C432.742 70.0489 429.542 70.8489 427.268 72.449C424.994 73.9649 423.857 75.9861 423.857 78.5126C423.857 81.0391 425.12 83.1445 427.647 84.8288C430.258 86.4289 434.342 87.4816 439.9 87.9869C444.28 88.4922 448.28 89.3344 451.901 90.5134C455.523 91.6925 458.386 93.5452 460.491 96.0717C462.681 98.5982 463.776 102.135 463.776 106.683C463.86 110.473 462.807 113.883 460.618 116.915C458.512 119.863 455.565 122.221 451.775 123.989C447.985 125.674 443.606 126.516 438.637 126.516Z" fill="white"/>
</svg>
