<svg width="80" height="80" viewBox="0 0 80 80" fill="none" xmlns="http://www.w3.org/2000/svg">
<path d="M30.0757 40.3865C29.9927 41.5372 29.9641 42.6947 29.8116 43.8373C29.632 45.1857 29.244 46.484 28.3197 47.5454C28.1536 47.7363 27.9127 47.896 27.6745 47.9854C26.4575 48.4376 25.2882 48.2792 24.1938 47.6077C23.019 46.8874 21.8538 46.1523 20.6967 45.4023C19.3695 44.5427 17.9606 43.8752 16.3775 43.6817C14.1096 43.4041 11.9929 43.8184 10.1062 45.1762C9.41877 45.6704 9.37794 46.3879 9.43511 47.1027C9.49092 47.8067 9.98233 48.2264 10.6344 48.4416C11.5954 48.7598 12.5673 49.0454 13.5243 49.373C13.7979 49.4664 14.0947 49.6032 14.2839 49.8076C15.249 50.8527 16.5408 51.424 17.6952 52.193C19.6227 53.4777 21.6537 54.6271 23.3797 56.1853C25.8776 58.4394 28.0638 60.9656 29.9097 63.7788C30.7972 65.1299 31.746 66.4431 32.5831 67.8239C33.3291 69.0545 33.8096 70.4124 34.1731 71.8055C34.4943 73.0361 34.8551 74.2572 35.1314 75.4973C35.4173 76.778 35.6242 78.0776 35.8665 79.3678C35.8951 79.5181 35.9318 79.667 35.9822 79.8971C34.8578 79.5235 33.796 79.1769 32.7397 78.8195C29.0643 77.574 25.4584 76.162 22.0008 74.3953C18.143 72.4242 14.6038 70.013 11.5791 66.8966C9.07165 64.3135 7.01617 61.4042 5.35817 58.2228C4.50875 56.5942 3.67703 54.948 2.98007 53.2517C2.09662 51.1018 2.2676 51.8044 1.51469 49.373C1.21794 48.5431 0.797207 47.3102 0.558045 45.8803C0.398603 44.927 0.138651 43.6993 0.07972 42.5836C0 41.0742 0.0797213 41.4714 0 40.2798C0 39.5251 0.032077 38.7148 0.0797207 38.2938C0.211762 37.1227 0.188145 36.803 0.388249 35.6428C0.66186 34.0534 0.939554 32.4587 1.35201 30.9018C2.0163 28.3986 2.87797 25.955 3.95336 23.5913C5.95031 19.205 8.58296 15.2356 11.8472 11.6833C14.9291 8.32992 15.7611 7.25604 19.691 4.92887C21.0228 4.22403 24.9127 2.34706 26.2281 1.87041C27.9421 1.39377 29.2662 1.09039 31.0113 0.797971C32.4515 0.556995 34.0152 0.426446 35.469 0.277529C36.4872 0.173286 37.5136 0.152979 38.5359 0.101535C39.2574 0.0649823 39.9788 0.0351988 40.7002 0.0027076C40.7288 0.0027076 40.7574 0.0013538 40.786 0C41.4299 0 42.0738 0 42.7176 0C42.7462 0 42.7748 0.0013538 42.8034 0.0027076C43.6582 0.033845 44.5145 0.0419677 45.368 0.104242C46.4774 0.18547 47.5841 0.304605 48.6908 0.421031C49.6219 0.518505 50.5557 0.603794 51.48 0.747297C52.5186 0.908399 53.5532 1.09928 54.5782 1.33214C55.6645 1.57988 56.7439 1.86418 57.8098 2.18503C62.2529 3.52123 66.3421 5.52891 69.8786 8.56819C73.098 11.3326 75.5169 14.6779 77.0837 18.6012C77.7112 20.1729 78.2122 21.8056 78.6287 23.4451C78.9772 24.8192 79.1528 26.2407 79.3434 27.6486C79.5013 28.8115 79.5816 29.9853 79.6714 31.1563C79.745 32.108 79.7831 33.0611 79.8361 34.0142C79.8702 34.6099 79.9029 35.2069 79.9369 35.8026C79.9369 36.6622 79.9382 37.5205 79.9396 38.3802C79.9083 39.2439 79.896 40.109 79.8402 40.97C79.7803 41.8919 79.6796 42.8112 79.5938 43.7304C79.5163 44.563 79.4809 45.401 79.3488 46.2241C79.0861 47.873 78.822 49.526 78.4681 51.1573C77.6323 55.0116 76.35 58.7156 74.5259 62.226C71.0057 68.9963 65.8779 74.1936 59.1098 77.7703C57.6124 78.5623 56.0524 79.2378 54.453 80C54.295 79.1471 54.1508 78.4039 54.0228 77.6579C53.8853 76.8565 53.7519 76.055 53.6348 75.2495C53.5341 74.5604 53.4402 73.87 53.3776 73.1782C53.2796 72.0857 53.1856 70.9932 53.1353 69.898C53.0618 68.3018 53.5178 66.8018 54.0459 65.3167C54.6149 63.7219 55.2221 62.138 55.6944 60.5148C55.9585 59.6091 56.0293 58.6371 56.1028 57.6894C56.2022 56.4195 56.2185 55.1416 56.277 53.869C56.326 52.7697 56.3451 51.6677 56.4472 50.5738C56.5806 49.1402 57.0026 47.7701 57.6805 46.5016C58.3026 45.3387 58.9886 44.2069 59.6992 43.0955C60.957 41.127 62.2447 39.1762 63.5406 37.2322C64.3479 36.0205 65.2259 34.8549 66.014 33.6311C66.7668 32.46 67.1316 31.1563 67.005 29.7565C66.9342 28.9659 66.7219 28.2037 66.3326 27.4983C66.2169 27.2885 66.0535 27.2344 65.8126 27.2113C64.3302 27.0678 63.3868 27.9113 62.6055 28.974C61.9412 29.877 61.394 30.8652 60.7419 31.7777C60.2396 32.4803 59.7169 33.1911 59.088 33.7773C57.9214 34.8657 56.9876 36.1302 56.0429 37.396C55.6522 37.9199 55.2207 38.4194 54.7688 38.8906C54.2773 39.4037 53.6553 39.7042 52.9324 39.7353C52.2137 39.7665 52.1007 39.6609 52.2477 38.9718C52.4955 37.8116 52.7419 36.646 53.0849 35.5115C53.4415 34.3323 53.9153 33.1884 54.3359 32.0282C54.958 30.3102 55.4358 28.557 55.7992 26.7619C56.0442 25.5597 56.5275 24.4063 56.8896 23.2258C57.3347 21.7758 57.8602 20.3408 58.1624 18.8625C58.3516 17.9365 58.2835 16.9306 58.1664 15.9816C58.0834 15.302 57.4627 14.8661 56.9263 14.4626C56.0565 13.8087 55.2275 13.9022 54.5047 14.7144C53.7914 15.5172 53.3558 16.4811 52.9692 17.4613C52.0585 19.7749 51.1601 22.094 50.2998 24.4252C49.6232 26.2583 49.0297 28.1211 48.36 29.9582C47.8278 31.4189 47.0913 32.7795 46.1316 34.0128C46.0336 34.1387 45.9247 34.2579 45.8158 34.3756C45.7927 34.4014 45.7478 34.4081 45.692 34.4325C45.6661 34.3499 45.6239 34.2782 45.6239 34.2064C45.6225 33.0381 45.598 31.8725 45.8213 30.7109C46.0826 29.349 46.2841 27.9749 46.5114 26.6062C46.7129 25.3918 46.9321 24.1788 47.1104 22.9618C47.2574 21.9573 47.3391 20.9433 47.4834 19.9374C47.6345 18.8868 47.8386 17.8431 47.9925 16.7925C48.1708 15.5741 48.5805 14.4125 48.8555 13.2212C49.2639 11.4464 48.4798 9.72027 46.9743 8.75772C45.9329 8.09165 44.4546 8.37595 43.7644 9.69455C43.3914 10.4066 43.3098 11.1851 43.1314 11.9446C42.802 13.3539 42.4399 14.755 42.1037 16.163C41.762 17.594 41.4421 19.0303 41.1005 20.4613C40.8309 21.5917 40.526 22.714 40.266 23.8458C40.1149 24.5065 39.9965 25.1766 39.9108 25.8481C39.7283 27.275 39.6194 28.7127 39.3935 30.1328C39.2682 30.9194 39.011 31.6938 38.7333 32.4451C38.4352 33.2533 37.6701 33.4388 36.999 32.8648C36.6887 32.5995 36.4191 32.2204 36.2789 31.8386C35.8556 30.6825 35.6691 29.4708 35.5234 28.247C35.2948 26.3205 34.9912 24.4022 34.7366 22.4785C34.655 21.8652 34.6196 21.2465 34.5774 20.6292C34.4889 19.3336 34.5025 18.0231 34.3024 16.7465C34.0941 15.4184 33.7143 14.112 33.3386 12.8178C33.2175 12.4008 32.8663 12.0529 32.6322 11.6657C32.3041 11.1242 31.8059 11.112 31.2627 11.2C30.1438 11.3841 29.47 12.1057 29.1283 13.1021C28.8656 13.8697 28.6655 14.6887 28.6206 15.4942C28.5239 17.2785 28.5457 19.0682 28.513 20.8553C28.5062 21.21 28.4722 21.5647 28.4518 21.9193C28.4518 22.1089 28.4545 22.2998 28.4558 22.4893C28.4558 22.8602 28.4572 23.2325 28.4586 23.6035C28.4558 23.8201 28.4545 24.0367 28.4518 24.2533C28.5212 25.0236 28.5892 25.7939 28.6614 26.5642C28.7186 27.1667 28.773 27.7691 28.8465 28.3702C28.935 29.0972 29.0398 29.8215 29.1378 30.5471C29.2535 31.4041 29.3692 32.261 29.4863 33.118C29.5857 33.8436 29.6932 34.5665 29.7858 35.2922C29.8552 35.8269 29.9192 36.363 29.9641 36.8991C30.0117 37.4664 30.0349 38.0363 30.0689 38.6049C30.0689 39.1965 30.0676 39.7881 30.0662 40.3811L30.0757 40.3865Z" fill="white"/>
<path d="M79.94 38.3823C79.94 37.5227 79.9386 36.6643 79.9373 35.8047C79.959 36.3394 79.9942 36.8742 79.9997 37.4089C80.0024 37.7325 79.9617 38.0574 79.94 38.3823Z" fill="white"/>
<path d="M30.0773 40.3856C30.0773 39.7939 30.0787 39.2023 30.08 38.6094C30.08 39.201 30.0787 39.7926 30.0773 40.3856Z" fill="white"/>
<path d="M28.4659 22.4918C28.4659 22.3023 28.4631 22.1114 28.4618 21.9219C28.4618 22.1114 28.4645 22.3023 28.4659 22.4918Z" fill="white"/>
<path d="M40.7876 0C40.7593 0 40.7311 0.00134159 40.7029 0.00268319C40.7311 0.00268319 40.7593 0.00134159 40.7876 0Z" fill="white"/>
<path d="M42.8099 0.00268319C42.7817 0.00268319 42.7534 0.00134159 42.7252 0C42.7534 0 42.7817 0.00134159 42.8099 0.00268319Z" fill="white"/>
</svg>
