<svg width="133" height="93" viewBox="0 0 133 93" fill="none" xmlns="http://www.w3.org/2000/svg">
<path d="M1.51554 92.2168C0.504947 92.2168 -0.000350172 91.7957 -0.000350172 90.9536C-0.000350172 90.1956 0.67338 89.6482 2.02084 89.3113L4.04203 88.9324C5.72636 88.5955 7.20014 87.7954 8.46339 86.5322C9.64241 85.1847 10.7793 83.332 11.8741 80.9739L49.6451 2.02116C50.0662 1.179 50.4873 0.631594 50.9084 0.378944C51.3295 0.126298 51.7084 -2.44584e-05 52.0453 -2.44584e-05C52.4664 -2.44584e-05 52.8033 0.126298 53.0559 0.378944C53.3928 0.631594 53.5612 1.179 53.5612 2.02116L54.9508 82.1108C55.035 84.4689 55.3297 86.1111 55.835 87.0375C56.3403 87.8797 57.393 88.5113 58.9932 88.9324L60.6354 89.3113C61.646 89.564 62.1513 90.0693 62.1513 90.8272C62.1513 91.7536 61.4354 92.2168 60.0037 92.2168H39.1602C38.0654 92.2168 37.518 91.7957 37.518 90.9536C37.518 90.0272 38.3602 89.4798 40.0445 89.3113L42.571 89.0587C44.0027 88.8903 44.9711 88.4271 45.4764 87.6691C46.066 86.9112 46.3607 85.6058 46.3607 83.7531L46.1081 64.1728C46.1081 61.9832 44.9711 60.8883 42.6973 60.8883H29.1806C26.991 60.8883 25.3487 61.9832 24.2539 64.1728L16.0429 81.1002C13.769 85.9006 14.527 88.5534 18.3167 89.0587L20.0852 89.3113C21.3485 89.4798 21.9801 89.9851 21.9801 90.8272C21.9801 91.7536 21.2643 92.2168 19.8326 92.2168H1.51554ZM29.6859 57.0986H43.8342C45.2659 57.0986 45.9817 56.3828 45.9817 54.9511L45.7291 20.4645H45.0975L28.549 54.9511C28.2121 55.5406 28.17 56.0459 28.4226 56.467C28.6753 56.8881 29.0964 57.0986 29.6859 57.0986ZM62.3289 92.2168C61.1499 92.2168 60.5604 91.7957 60.5604 90.9536C60.5604 90.0272 61.4025 89.4377 63.0868 89.185L65.6133 88.806C67.4661 88.5534 68.7293 88.1323 69.4031 87.5428C70.161 86.8691 70.7084 85.6479 71.0453 83.8794L88.2254 9.60063C88.6465 7.83209 88.6465 6.65306 88.2254 6.06354C87.8043 5.47403 86.7516 5.01084 85.0673 4.67398L82.5408 4.16868C81.446 3.91603 80.8986 3.45284 80.8986 2.77911C80.8986 1.76852 81.6565 1.26322 83.1724 1.26322H108.564C115.806 1.26322 121.533 3.95814 125.744 9.34798C130.039 14.6536 132.186 22.5699 132.186 33.097C132.186 40.8449 130.965 48.298 128.523 55.4564C126.081 62.5306 122.796 68.8468 118.67 74.4051C114.543 79.8791 109.827 84.2163 104.521 87.4165C99.2998 90.6167 93.8258 92.2168 88.0991 92.2168H62.3289ZM88.7307 88.9324C93.531 88.9324 98.0366 87.1638 102.247 83.6267C106.458 80.0897 110.164 75.2893 113.364 69.2258C116.564 63.078 119.049 56.1722 120.817 48.5085C122.67 40.8449 123.596 32.9285 123.596 24.7596C123.596 18.0223 122.207 12.9693 119.428 9.60063C116.648 6.23198 112.774 4.54766 107.806 4.54766C101.489 4.54766 97.6155 7.62155 96.1838 13.7693L81.0249 79.7107C80.267 83.0793 80.5617 85.4795 81.9092 86.9112C83.3409 88.2586 85.6147 88.9324 88.7307 88.9324Z" fill="white"/>
</svg>
