<svg width="296" height="220" viewBox="0 0 296 220" fill="none" xmlns="http://www.w3.org/2000/svg">
<path d="M8.466 197V121.01H57.936V130.19H18.462V154.262H55.896V163.442H18.462V187.82H57.936V197H8.466ZM69.2014 197V142.022H78.4834V152.732L76.9534 151.814C78.3134 148.346 80.4894 145.66 83.4814 143.756C86.5414 141.784 90.1114 140.798 94.1914 140.798C98.1354 140.798 101.637 141.682 104.697 143.45C107.825 145.218 110.273 147.666 112.041 150.794C113.877 153.922 114.795 157.458 114.795 161.402V197H105.207V164.462C105.207 161.402 104.663 158.818 103.575 156.71C102.487 154.602 100.923 152.97 98.8834 151.814C96.9114 150.59 94.6334 149.978 92.0494 149.978C89.4654 149.978 87.1534 150.59 85.1134 151.814C83.1414 152.97 81.5774 154.636 80.4214 156.812C79.2654 158.92 78.6874 161.47 78.6874 164.462V197H69.2014ZM142.673 197L121.151 142.022H131.759L148.997 188.534H145.325L162.665 142.022H173.273L151.649 197H142.673ZM206.876 198.224C201.572 198.224 196.778 197 192.494 194.552C188.21 192.036 184.81 188.602 182.294 184.25C179.778 179.898 178.52 174.968 178.52 169.46C178.52 163.952 179.744 159.056 182.192 154.772C184.708 150.488 188.108 147.088 192.392 144.572C196.676 142.056 201.504 140.798 206.876 140.798C212.18 140.798 216.974 142.056 221.258 144.572C225.542 147.02 228.908 150.386 231.356 154.67C233.872 158.954 235.13 163.884 235.13 169.46C235.13 175.036 233.838 180 231.254 184.352C228.67 188.636 225.236 192.036 220.952 194.552C216.736 197 212.044 198.224 206.876 198.224ZM206.876 189.044C210.276 189.044 213.336 188.194 216.056 186.494C218.844 184.794 221.02 182.448 222.584 179.456C224.216 176.464 225.032 173.132 225.032 169.46C225.032 165.72 224.216 162.422 222.584 159.566C221.02 156.642 218.844 154.33 216.056 152.63C213.336 150.862 210.276 149.978 206.876 149.978C203.408 149.978 200.28 150.862 197.492 152.63C194.772 154.33 192.596 156.642 190.964 159.566C189.332 162.422 188.516 165.72 188.516 169.46C188.516 173.132 189.332 176.464 190.964 179.456C192.596 182.448 194.772 184.794 197.492 186.494C200.28 188.194 203.408 189.044 206.876 189.044ZM249.464 219.44C248.24 219.44 247.016 219.338 245.792 219.134C244.568 218.93 243.412 218.59 242.324 218.114V209.648C243.072 209.784 243.99 209.92 245.078 210.056C246.234 210.26 247.356 210.362 248.444 210.362C251.64 210.362 254.054 209.648 255.686 208.22C257.386 206.86 258.984 204.48 260.48 201.08L263.948 192.818L263.744 201.08L240.284 142.022H250.586L268.844 188.942H265.784L283.94 142.022H294.446L269.66 203.528C268.504 206.452 267.008 209.104 265.172 211.484C263.404 213.932 261.228 215.87 258.644 217.298C256.06 218.726 253 219.44 249.464 219.44Z" fill="#001D3D"/>
<path d="M225.254 0L225.602 0.0923261C225.967 0.512921 225.989 1.92899 226.008 2.53602C226.078 4.75252 226.254 6.45377 226.993 8.56974C227.787 9.21096 228.671 9.7113 229.449 10.3879C230.884 11.635 232.168 13.0644 233.549 14.3733C237.969 18.5651 248.796 28.4704 250.922 33.4688C251.082 33.8463 251.233 34.2535 251.221 34.6702C251.203 35.367 250.777 36.0232 250.633 36.6987C250.434 37.6422 250.562 38.6928 250.182 39.5938C249.764 40.5826 248.796 41.2771 247.828 41.6664C246.556 42.1829 245.127 42.1562 243.875 41.5928C242.463 40.9739 241.945 40.2097 241.398 38.8575C237.126 37.7804 233.512 36.1796 229.457 34.5782C228.682 34.2723 227.479 34.3324 226.686 34.0823C225.669 33.761 224.61 33.1072 223.533 33.0072C221.884 32.8543 220.143 33.2913 218.609 33.8591C217.768 34.1701 215.495 35.1531 214.947 35.7917C212.911 38.1677 211.391 41.1635 209.503 43.74C207.945 45.867 206.529 47.9321 204.933 50.0303C203.878 51.4164 202.532 53.3097 201.739 54.8149C201.159 55.9175 201.122 58.7813 200.633 59.9581C199.737 62.1059 198.545 64.0258 197.549 66.1999C201.025 66.6072 205.696 66.6641 208.977 67.5879C210.548 68.2247 211.245 69.393 211.882 70.8457C214.304 76.3702 210.593 77.1586 206.858 80.9397C206.114 81.6836 205.417 82.4718 204.769 83.3C203.655 84.7517 201.121 88.825 199.565 89.3524C199.051 89.5265 198.496 89.5453 197.97 89.4066C197.273 89.2281 195.712 88.2422 194.777 87.8946C193.22 87.3133 189.992 86.7036 188.647 85.9265C186.031 84.415 181.078 78.4015 180.988 85.2456C180.963 87.1262 180.858 89.069 180.82 90.9362C180.725 95.3819 181.949 100.195 180.937 104.443C180.385 106.228 176.803 107.575 175.145 108.176C172.802 107.533 170.73 106.306 168.245 105.761C164.629 104.97 160.855 104.882 157.266 104.142C156.416 103.413 155.347 102.073 154.531 101.446C150.456 98.3153 147.16 95.585 142.312 93.7895C144.443 90.005 148.004 89.1868 152.066 89.1927C155.059 91.314 156.208 92.3606 154.798 95.8586C155.682 96.4382 156.345 96.7785 157.342 97.0855C162.428 98.652 166.781 101.77 172.324 101.768C172.943 101.768 173.488 101.721 173.942 101.26C174.026 101 174.061 100.658 173.983 100.395C173.189 97.1598 171.848 93.4861 171.251 90.2407C170.435 85.8077 170.227 84.5206 168.202 80.5623C163.332 79.363 159.061 79.1289 154.202 78.2502C152.239 77.9297 150.308 76.9143 148.442 76.4075C142.603 74.8205 138.081 69.959 132.191 68.7526L128.285 74.9298C128.146 76.941 128.401 79.0636 128.494 81.0818C128.611 83.6171 128.537 86.0827 129.005 88.5844C131.672 89.562 140.865 90.7532 142.199 93.5205C142.845 94.8576 143.688 99.2492 144.534 100.926C145.169 102.185 144.719 104.53 144.406 105.89C146.448 107.261 147.455 108.717 149.141 109.981C153.488 113.238 156.941 115.698 158.415 121.355C157.102 121.68 155.201 121.69 153.804 121.736C151.587 122.186 150.632 122.029 148.493 121.5C148.33 120.014 147.581 119.537 147.434 118.183C147.358 117.492 148.257 116.081 147.924 115.304C146.671 114.184 144.987 115.558 143.337 113.683C142.733 112.997 140.603 110.98 139.803 110.437C134.883 107.197 129.916 103.917 125.019 100.656C120.199 97.4455 118.402 98.7668 119.147 91.9195C116.55 90.9661 113.269 90.7053 111.088 89.84C106.631 88.0719 112.021 81.6761 113.337 79.4972C114.313 77.883 114.878 76.7826 115.547 75.1675C114.744 74.513 113.937 73.9534 113.025 73.4573C106.145 69.7147 98.7962 65.846 94.4653 59.0369C93.7866 57.9699 93.1847 56.8866 92.4841 55.8268C91.0132 55.523 90.0137 55.5731 88.5198 55.5913C87.0319 57.1679 85.0119 59.1868 83.2278 60.4303C82.5875 60.9553 80.2258 61.8251 79.7882 62.3018C77.6211 64.6626 75.472 65.5534 72.6636 66.9683C71.3995 67.5127 69.8082 69.0237 68.6011 69.5016C64.7633 71.1317 61.4661 73.0466 57.5146 74.4216C53.1288 75.9478 48.1168 77.8722 43.4947 76.111C40.9346 75.1355 40.021 71.9406 39.0003 69.4976C38.5567 69.1351 36.4306 68.0538 36.3501 67.9277C35.252 66.2072 33.8689 65.0338 32.289 63.7402C32.0802 63.5692 31.5513 61.9977 31.3086 61.6276C30.7091 60.713 30.1196 59.9607 29.5432 59.0422C28.3767 57.2146 27.4098 55.1306 25.9565 53.5191C24.9334 52.3848 21.9795 51.8362 21.1351 50.7626C20.8667 50.4252 20.7415 49.9959 20.7862 49.5671C20.9549 47.9763 23.8142 48.3111 25.025 48.1885C29.2994 47.7562 32.9903 48.5393 37.0495 49.7229C38.408 50.072 40.2034 50.1114 41.5048 50.656C46.8613 52.8973 52.4317 54.3459 57.8646 56.3583C59.4341 56.9397 59.8438 54.9141 60.9029 54.0977C63.3947 52.1772 65.5165 50.6355 68.7145 50.1396C69.117 50.0766 70.3785 48.9077 70.8727 48.7165C75.2511 46.8726 79.7198 44.4158 84.5767 44.3782C85.9272 44.3587 89.5313 43.4017 90.7199 42.7733C93.9337 41.0743 96.4293 37.8043 99.1794 35.4796C101.05 34.0092 103.31 33.1397 105.493 32.2719C114.993 28.4953 125.031 31.0239 134.789 31.8888C136.384 32.03 138.524 32.6725 140.025 32.4374C141.341 32.2314 143.461 31.4009 144.861 31.1538C146.082 30.9384 147.248 30.5104 148.49 30.349C155.667 29.0247 161.004 23.2398 168.115 21.6403C168.8 21.4863 169.791 20.9542 170.463 20.6878C173.14 19.6257 175.333 17.5915 177.866 16.3266C179.168 15.6764 181.09 15.3304 182.507 14.8562C184.727 14.1128 186.986 13.431 189.217 12.723C190.76 12.2234 192.193 11.3944 193.747 10.9115C198.123 9.77066 202.584 9.39958 207.055 8.89076C207.804 8.80555 208.921 8.12521 209.721 8.00922C211.064 7.81445 212.468 7.91977 213.791 7.58548C215.664 7.05984 217.387 5.94427 219.382 6.10526C219.525 6.0805 220.715 6.153 220.759 6.04563C222.088 2.84623 222.16 1.87483 225.254 0ZM194.542 80.1179C194.555 80.739 194.49 82.2885 194.699 82.7114C195.615 82.9644 196.006 82.3365 196.853 82.165C200.307 81.4657 203.215 78.1015 205.249 75.3653C205.205 74.6421 205.292 74.0536 204.851 73.578C204.551 73.5519 204.372 73.5294 204.072 73.5514C199.803 73.813 196.777 74.3554 192.822 76.0392C192.22 76.2954 191.188 76.3817 190.699 76.7723C190.797 77.0456 193.941 78.6718 194.542 80.1179ZM138.39 100.798C138.693 100.461 138.95 100.242 139.068 99.8104C138.856 99.4232 132.374 95.6642 131.521 95.4145C131.1 95.2877 130.663 95.2208 130.223 95.216C132.584 98.8364 133.25 99.4013 137.025 101.656C137.457 101.385 137.975 101.08 138.39 100.798ZM232.407 18.9887C233.145 18.7365 233.547 17.94 233.311 17.1962C233.074 16.4526 232.287 16.0346 231.538 16.2556C231.04 16.4028 230.66 16.8081 230.547 17.3148C230.432 17.8216 230.6 18.3508 230.986 18.6981C231.372 19.0454 231.916 19.1566 232.407 18.9887Z" fill="#001D3D"/>
</svg>
